<svg xmlns="http://www.w3.org/2000/svg" width="1024" height="124" viewBox="-.533 -.533 156 18.83">
 <path d="m100.5 17.6h-4.266v-17.41l13.72 0.0113s2.512-0.0937 4.11 1.485c0 0 1.631 1.362 1.631 4.691v11.22h-4.255v-11.51s0.0525-1.174-0.3475-1.586c0 0-0.3537-0.4475-1.026-0.4475h-9.577l9e-3 13.54zm18.16-3e-3v-16.3-1.094h17.12v3.869l-12.88-1e-3v2.958h8.948v3.736h-8.948v2.968h12.96v3.87h-17.21zm-29.86 0v-16.3-1.094h4.248v17.4h-4.248zm54.19-14.62v-0.5862 0.5862zm-1.095 14.62v-13.53h-4.01v-3.869h15.95v3.869h-7.689v13.53h-4.248zm-66.03-14.62v-0.5862 0.5862zm-1.095 14.62v-13.53h-4.01v-3.869h15.95v3.869h-7.689v13.53h-4.248zm-12.81-10.58c1.038-8e-3 1.659 1e-3 1.909-0.1512 0 0 0.4362-0.2412 0.4412-0.7588l1e-3 -1.138c0-0.52-0.4412-0.7588-0.4412-0.7588-0.3312-0.18-0.8925-0.1462-2.225-0.1475h-8.276v2.954h8.781-0.19zm2.289 10.58v-5.938c0-0.5338-0.4462-0.7575-0.4462-0.7575-0.2012-0.125-0.8038-0.1475-1.691-0.1475h0.2062-8.949v6.842h-4.248v-16.3-1.094h13.26c2.29 7e-3 3.871 0.3438 4.96 1.401 1.07 1.09 1.212 2.516 1.218 4v1.239c0.0138 1.261-0.6488 2.411-1.439 3.081l0.1588 0.0788c0.3225 0.1562 0.4988 0.3775 0.4988 0.3775 0.6012 0.7675 0.5938 1.428 0.5925 2.24v4.981h-4.121zm-64.24-17.4v1.095 16.3h4.248v-6.836h12.87v-3.738h-12.87v-2.956h14.96v-3.869h-19.21z" style="fill:#231f20"/>
 <path d="m43.28 17.77c1.38-0.4688 2.454-2.058 2.712-4.056v-0.5775h-7.075v4.634h4.362zm2.713-13.13v-0.5225c-0.2712-2.085-1.425-3.728-2.896-4.114h-4.179v4.636h7.075zm-24.9 8.497v0.5725c0.2562 2 1.33 3.592 2.714 4.061h4.34v-4.634h-7.054zm2.895-13.13c-1.469 0.3862-2.626 2.03-2.895 4.118v0.5188h7.054v-4.636h-4.159zm22.01 6.566h-7.075v4.636h7.075v-4.636zm-15.92 11.2h6.921v-4.634h-6.921v4.634zm6.921-17.77h-6.921v4.636h6.921v-4.636zm-15.9 11.2h7.054v-4.636h-7.054v4.636z" style="fill:#ee2e24"/>
</svg>
